<svg width="20" height="17" viewBox="0 0 20 17" fill="none" xmlns="http://www.w3.org/2000/svg">
<g opacity="0.5">
<path d="M9.99992 12.0417C10.4419 12.0417 10.8659 11.8925 11.1784 11.6268C11.491 11.3611 11.6666 11.0008 11.6666 10.625C11.6666 9.83879 10.9166 9.20837 9.99992 9.20837C9.55789 9.20837 9.13397 9.35763 8.82141 9.62331C8.50885 9.88898 8.33325 10.2493 8.33325 10.625C8.33325 11.0008 8.50885 11.3611 8.82141 11.6268C9.13397 11.8925 9.55789 12.0417 9.99992 12.0417ZM14.9999 5.66671C15.4419 5.66671 15.8659 5.81596 16.1784 6.08164C16.491 6.34732 16.6666 6.70765 16.6666 7.08337V14.1667C16.6666 14.5424 16.491 14.9028 16.1784 15.1684C15.8659 15.4341 15.4419 15.5834 14.9999 15.5834H4.99992C4.55789 15.5834 4.13397 15.4341 3.82141 15.1684C3.50885 14.9028 3.33325 14.5424 3.33325 14.1667V7.08337C3.33325 6.29712 4.08325 5.66671 4.99992 5.66671H5.83325V4.25004C5.83325 3.31073 6.27224 2.4099 7.05364 1.7457C7.83504 1.08151 8.89485 0.708374 9.99992 0.708374C10.5471 0.708374 11.0889 0.799982 11.5944 0.977967C12.1 1.15595 12.5593 1.41683 12.9462 1.7457C13.3331 2.07458 13.64 2.46501 13.8494 2.8947C14.0588 3.3244 14.1666 3.78494 14.1666 4.25004V5.66671H14.9999ZM9.99992 2.12504C9.33688 2.12504 8.70099 2.34892 8.23215 2.74744C7.76331 3.14595 7.49992 3.68646 7.49992 4.25004V5.66671H12.4999V4.25004C12.4999 3.68646 12.2365 3.14595 11.7677 2.74744C11.2988 2.34892 10.663 2.12504 9.99992 2.12504Z" fill="black"/>
</g>
</svg>
